<?xml version="1.0" standalone="no"?><!DOCTYPE svg PUBLIC "-//W3C//DTD SVG 1.1//EN" "http://www.w3.org/Graphics/SVG/1.1/DTD/svg11.dtd"><svg t="1775078352025" class="icon" viewBox="0 0 1024 1024" version="1.1" xmlns="http://www.w3.org/2000/svg" p-id="17302" width="32" height="32" xmlns:xlink="http://www.w3.org/1999/xlink"><path d="M903.533714 256.731429a36.571429 36.571429 0 0 1 10.752 25.892571V987.428571a36.571429 36.571429 0 0 1-36.571428 36.571429H146.285714a36.571429 36.571429 0 0 1-36.571428-36.571429V36.571429A36.571429 36.571429 0 0 1 146.285714 0h485.376c9.728 0 19.017143 3.876571 25.965715 10.752l245.906285 246.052571z m-73.581714 42.715428l-215.04-215.04v215.04h215.04zM413.842286 613.668571l67.584 151.917715c2.925714 6.582857 9.508571 10.898286 16.676571 10.898285h27.501714a18.285714 18.285714 0 0 0 16.749715-10.898285l67.510857-152.429715v179.931429c0 10.166857 8.192 18.285714 18.285714 18.285714h31.305143a18.285714 18.285714 0 0 0 18.285714-18.285714v-310.857143a18.285714 18.285714 0 0 0-18.285714-18.285714h-39.716571a18.285714 18.285714 0 0 0-16.822858 11.044571L512.146286 683.666286 421.302857 474.989714a18.285714 18.285714 0 0 0-16.822857-10.971428h-39.936a18.285714 18.285714 0 0 0-18.285714 18.285714v310.857143c0 10.093714 8.192 18.285714 18.285714 18.285714h31.012571a18.285714 18.285714 0 0 0 18.285715-18.285714V613.668571z" fill="#000000" p-id="17303"></path></svg>