<?xml version="1.0" standalone="no"?><!DOCTYPE svg PUBLIC "-//W3C//DTD SVG 1.1//EN" "http://www.w3.org/Graphics/SVG/1.1/DTD/svg11.dtd"><svg t="1775078235500" class="icon" viewBox="0 0 1024 1024" version="1.1" xmlns="http://www.w3.org/2000/svg" p-id="11764" width="32" height="32" xmlns:xlink="http://www.w3.org/1999/xlink"><path d="M128 64a64 64 0 0 0-64 64v768a64 64 0 0 0 64 64h768a64 64 0 0 0 64-64V128a64 64 0 0 0-64-64H128z m0-64h768a128 128 0 0 1 128 128v768a128 128 0 0 1-128 128H128a128 128 0 0 1-128-128V128a128 128 0 0 1 128-128z m262.848 690.56l-23.168 34.752a64 64 0 1 1-26.624-17.792l23.168-34.752a127.68 127.68 0 0 1-17.344-175.232l-58.368-58.368a64 64 0 1 1 22.656-22.656l58.368 58.368a127.424 127.424 0 0 1 116.48-21.12l57.856-206.4A64 64 0 1 1 574.656 256l-59.2 211.2c27.328 16.96 47.808 43.968 56.32 75.84l196.416-35.712a64 64 0 1 1 5.696 31.488L576 574.784V576c0 23.04-6.08 44.736-16.768 63.36l104.768 78.656a64 64 0 1 1-19.2 25.6L539.968 664.96a127.616 127.616 0 0 1-149.12 25.6z" fill="#40A0FF" p-id="11765"></path></svg>