<?xml version="1.0" standalone="no"?><!DOCTYPE svg PUBLIC "-//W3C//DTD SVG 1.1//EN" "http://www.w3.org/Graphics/SVG/1.1/DTD/svg11.dtd"><svg t="1775078678390" class="icon" viewBox="0 0 1049 1024" version="1.1" xmlns="http://www.w3.org/2000/svg" p-id="22807" width="32.78125" height="32" xmlns:xlink="http://www.w3.org/1999/xlink"><path d="M422.4 140.8m102.4 0l409.6 0q102.4 0 102.4 102.4l0 512q0 102.4-102.4 102.4l-409.6 0q-102.4 0-102.4-102.4l0-512q0-102.4 102.4-102.4Z" fill="#FFFFFF" p-id="22808"></path><path d="M711.168 204.8H947.2v80.4608h-236.032zM409.6 204.8h236.032v80.4608H409.6zM711.168 365.7216H947.2v80.4608h-236.032zM409.6 365.7216h236.032v80.4608H409.6zM711.168 526.6176H947.2v80.4608h-236.032zM409.6 526.6176h236.032v80.4608H409.6zM711.168 687.5392H947.2V768h-236.032zM409.6 687.5392h236.032V768H409.6z" fill="#BFC5D2" p-id="22809"></path><path d="M79.4624 109.0304l409.6-94.208A102.4 102.4 0 0 1 614.4 114.6624v793.4976a102.4 102.4 0 0 1-127.3344 99.328l-409.6-102.8608A102.4 102.4 0 0 1 0 805.2736V208.8448A102.4 102.4 0 0 1 79.4624 109.056z" fill="#39C52C" p-id="22810"></path><path d="M405.632 738.304l-81.92-213.504 81.92-217.6h-81.92l-66.2784 146.3808-42.9312-99.6864-88.96 19.6352L214.5024 524.8l-105.2672 144.8448 73.4976 31.9488 74.7008-95.1808 66.304 131.8912z" fill="#FFFFFF" p-id="22811"></path></svg>